PathFileType	3	(X/Y/Z)	RCH0000002 BBF 07.c3d
DataRate	CameraRate	NumFrames	NumMarkers	Units	OrigDataRate	OrigDataStartFrame	OrigNumFrames
100.0	100.0	5	23	mm	100.0	436	452
Frame#	Time	T2			T10			MAN			LASI			RASI			RPSI			LPAT			LKNE			LANK			LMED			LHEE			LTOE			RPAT			RKNE			RANK			RMED			RHEE			RTOE			LPSI			RTHI			LTHI			RTIB			LTIB			
		X1	Y1	Z1	X2	Y2	Z2	X3	Y3	Z3	X4	Y4	Z4	X5	Y5	Z5	X6	Y6	Z6	X7	Y7	Z7	X8	Y8	Z8	X9	Y9	Z9	X10	Y10	Z10	X11	Y11	Z11	X12	Y12	Z12	X13	Y13	Z13	X14	Y14	Z14	X15	Y15	Z15	X16	Y16	Z16	X17	Y17	Z17	X18	Y18	Z18	X19	Y19	Z19	X20	Y20	Z20	X21	Y21	Z21	X22	Y22	Z22	X23	Y23	Z23	

436	4.350	1900.23507	4.50313	955.48902	1909.90658	-26.24489	768.99156	2028.77461	29.56922	921.91972	2013.87523	32.33114	618.96819	2005.68492	-142.89961	642.11759	1897.72860	-74.80587	682.49305	2110.97829	-16.45798	387.23306	2085.51375	46.91018	338.31432	2059.67904	80.00993	69.69419	2062.29641	8.99507	78.18336	2016.98939	36.87258	91.14929	2109.46334	45.99921	68.09348	1919.81523	-89.54402	342.91826	1869.80940	-146.61990	330.22453	1714.59789	-155.14131	100.35625	1698.85750	-90.94838	122.27015	1685.86484	-135.83748	154.11770	1733.53525	-107.69043	69.37383	1898.42568	-4.40045	668.99775	1928.30462	-213.58068	427.18594	2037.82268	115.52030	454.48826	1808.13066	-216.68501	228.85684	2076.01902	123.13667	233.37061	
437	4.360	1911.34076	6.42630	953.25031	1923.76496	-26.05681	767.28614	2040.55991	30.11145	921.10482	2027.18246	33.72741	618.71807	2018.79033	-141.74372	639.06939	1911.10073	-74.45999	680.81050	2119.49079	-15.08130	384.11854	2094.01271	48.68454	335.96927	2064.02985	82.15986	67.71779	2065.30674	11.10722	76.74235	2020.99578	39.65108	89.88070	2113.21805	47.24623	66.03342	1937.52030	-87.76451	338.53440	1886.12949	-143.71601	326.38088	1724.19918	-153.89372	102.04494	1709.91307	-89.28254	123.68908	1698.40936	-133.55403	156.81467	1741.16765	-107.13466	69.04440	1911.84107	-3.83847	668.73713	1942.13353	-211.49503	424.21365	2049.14069	117.36705	453.21052	1821.54037	-214.46056	228.11467	2083.97435	125.04313	231.12560	
438	4.370	1922.36344	8.01918	951.62813	1937.46956	-26.17899	766.21662	2052.21537	30.41204	920.86454	2039.88888	35.33365	619.12957	2031.85265	-140.37091	636.36620	1924.27473	-74.42227	679.72787	2126.93608	-12.80199	381.62639	2101.13538	51.16081	334.28932	2066.76829	84.72431	66.33271	2066.74178	13.65027	75.98084	2023.48335	42.88928	89.32409	2115.30028	48.87893	64.46071	1955.98793	-85.78635	334.59386	1903.35181	-140.66584	322.73761	1735.22557	-152.41693	103.98114	1722.32932	-87.38853	125.23767	1712.32933	-131.02285	159.58823	1750.22235	-106.42552	69.01610	1924.86212	-3.59817	669.22677	1956.68158	-209.21734	421.51664	2059.14788	119.74678	452.64454	1836.20517	-212.02348	227.57808	2090.39907	127.55289	229.40173	
439	4.380	1933.30943	9.23595	950.69761	1950.91835	-26.56864	765.82971	2063.72555	30.46237	921.21644	2051.94485	37.13812	620.19286	2044.79898	-138.78015	634.11719	1937.17915	-74.63945	679.29680	2133.26619	-9.70803	379.77961	2106.84575	54.27236	333.28456	2068.31262	87.61672	65.48493	2067.04171	16.53924	75.83289	2024.83398	46.49635	89.36686	2116.14610	50.83652	63.36425	1975.07047	-83.59626	331.29749	1921.36347	-137.49887	319.46629	1747.68390	-150.71270	106.16987	1736.07152	-85.27403	126.93124	1727.50085	-128.26758	162.41889	1760.83567	-105.54106	69.36337	1937.43288	-3.63315	670.46190	1971.89555	-206.77156	419.22574	2067.80126	122.60154	452.78244	1852.04732	-209.39238	227.32635	2095.40577	130.59996	228.17608	
440	4.390	1944.18684	10.04544	950.50791	1964.02075	-27.16695	766.14407	2075.08036	30.26127	922.15972	2063.33219	39.11682	621.86521	2057.56180	-136.98379	632.41977	1949.75583	-75.04054	679.54009	2138.47764	-5.95724	378.54830	2111.16262	57.89394	332.91372	2069.01929	90.68347	65.09693	2066.60868	19.62438	76.20166	2025.38374	50.29705	89.87742	2116.14900	53.00919	62.70550	1994.62253	-81.18976	328.82726	1940.04536	-134.24817	316.73023	1761.55828	-148.79601	108.59577	1751.08396	-82.96184	128.77372	1743.77802	-125.33020	165.27889	1773.12364	-104.46594	70.13894	1949.52102	-3.87761	672.40086	1987.70791	-204.19033	417.46737	2075.12271	125.82905	453.56294	1868.97187	-206.59598	227.42925	2099.09696	134.05235	227.39834	
